<svg width="114" height="24" viewBox="0 0 114 24" fill="none" xmlns="http://www.w3.org/2000/svg">
<g id="logo-full-light">
<g id="Group 129">
<g id="Group">
<path id="Vector" d="M10.6942 4.25759C10.9122 4.25759 11.1237 4.26727 11.3352 4.28347C12.0211 4.34183 12.6813 4.49422 13.2999 4.72115C14.8607 5.29819 16.1843 6.37126 17.0785 7.75551C16.7068 4.87679 14.9761 2.42922 12.5563 1.10333C11.3128 0.419309 9.88658 0.0302734 8.37062 0.0302734C7.09183 0.0302734 5.10471 0.302544 4.0086 0.798539C2.36765 1.39827 1.29401 2.37406 0.0697021 3.47951L5.14318 6.6857C6.53094 5.18799 8.50203 4.25759 10.6942 4.25759Z" fill="#003EDC"/>
</g>
<g id="Group_2">
<path id="Vector_2" d="M16.0363 11.4857H16.0331C15.8793 11.4986 15.7255 11.5084 15.5748 11.5149H15.5364C14.8986 11.5311 14.2543 11.4662 13.6294 11.3203C12.8185 11.1323 12.0301 10.8114 11.3026 10.3478C10.8218 10.0463 10.3699 9.68326 9.95327 9.26183C9.83468 9.14512 9.72257 9.0219 9.61681 8.89871C8.83799 8.00397 8.30275 6.97632 8.00469 5.89355C7.13934 6.30851 6.36369 6.88553 5.71629 7.57928C4.96952 8.38 4.39263 9.34289 4.04008 10.4094C3.96957 10.6266 3.90545 10.8503 3.85096 11.0804L3.69713 11.9557L3.085 15.4634L2.9408 16.2803L3.4728 15.82L4.367 15.0419L4.22279 13.0839C4.19074 12.8862 4.17467 12.6851 4.17467 12.4777V12.4582L9.36039 12.5749C8.51748 12.964 7.03034 14.2736 6.45024 14.8896L6.44382 14.8993C6.31242 15.0387 6.18745 15.1813 6.06566 15.3305L5.62333 17.1264L5.57208 17.3339H5.57528L5.45032 17.8396L5.42787 17.9336L4.17467 23.0297L8.90202 20.4719L8.94694 20.2353L9.12643 19.2822C9.14566 19.1914 9.16487 19.1136 9.1841 19.0456C9.23538 18.8511 9.26105 18.7571 9.2931 18.6695C9.34438 18.5075 9.40207 18.3485 9.45656 18.2059C10.5366 15.3628 11.8923 14.7145 11.8025 14.7145C11.8731 14.6561 11.95 14.601 12.0269 14.5491C12.6839 14.0856 13.5429 13.7517 14.4723 13.622C14.6133 13.6026 14.7736 13.5863 14.9402 13.5831L14.9852 13.5799L15.8409 12.617L16.9722 11.3398L16.9113 11.3528C16.6196 11.4144 16.328 11.4597 16.0363 11.4857Z" fill="#003EDC"/>
</g>
<g id="Group_3">
<path id="Vector_3" d="M26.3066 15.4809C26.1304 15.9575 25.8483 16.3238 25.4317 16.5734C25.0247 16.8198 24.5567 16.9397 24.0311 16.9397C23.4894 16.9397 23.0664 16.8296 22.7587 16.5929C22.451 16.3595 22.2908 16.0418 22.2908 15.6398C22.2908 14.8035 22.9221 14.382 24.1881 14.382H26.3066V15.4809ZM28.0598 9.15625C27.1784 8.362 25.9125 7.95996 24.2651 7.95996C23.4158 7.95996 22.5793 8.07344 21.7652 8.30037C20.9575 8.53053 20.2557 8.85146 19.6788 9.26317L20.7845 11.4417C21.1691 11.1369 21.6369 10.8938 22.185 10.709C22.7298 10.5339 23.2844 10.4432 23.8517 10.4432C24.6721 10.4432 25.2811 10.6248 25.6849 10.9911C26.1015 11.3574 26.3066 11.8826 26.3066 12.5601H23.8517C22.3004 12.5601 21.1466 12.8519 20.3999 13.4192C19.6531 13.993 19.2845 14.7872 19.2845 15.7857C19.2845 16.4081 19.4416 16.9722 19.7621 17.4584C20.0762 17.9544 20.5345 18.3435 21.1306 18.6255C21.7332 18.8978 22.4414 19.0437 23.2651 19.0437C24.8452 19.0437 25.9221 18.5412 26.499 17.5427V18.8848H29.3867V12.7416C29.3867 11.1434 28.9475 9.94724 28.0598 9.15625Z" fill="#F5F0EC"/>
</g>
<g id="Group_4">
<path id="Vector_4" d="M53.4939 12.4746C53.5901 11.3756 53.9907 10.5004 54.7118 9.81636C55.4201 9.13882 56.2982 8.80163 57.3495 8.80163C58.4167 8.80163 59.3013 9.13882 60.0225 9.81636C60.734 10.5004 61.1378 11.3756 61.2307 12.4746H53.4939ZM62.6473 13.1197C62.6473 12.0337 62.4166 11.0645 61.9583 10.2216C61.5 9.37223 60.875 8.70762 60.0706 8.23756C59.2693 7.75454 58.3655 7.51465 57.3495 7.51465C56.3399 7.51465 55.4329 7.75454 54.6252 8.23756C53.8176 8.70762 53.1766 9.37224 52.7183 10.2281C52.2536 11.0839 52.0228 12.0499 52.0228 13.1197C52.0228 14.1993 52.26 15.1685 52.7504 16.0244C53.2311 16.8672 53.9042 17.5416 54.7663 18.0214C55.6349 18.5109 56.6252 18.7508 57.747 18.7508C58.6155 18.7508 59.4135 18.5984 60.1411 18.2871C60.8686 17.9824 61.4775 17.5351 61.9583 16.9418L61.1314 15.9725C60.7179 16.4556 60.2212 16.8154 59.6571 17.0617C59.0898 17.3049 58.4648 17.4313 57.7854 17.4313C56.5867 17.4313 55.5899 17.0715 54.7983 16.368C54.0163 15.6613 53.5837 14.7374 53.4939 13.5833H62.6217L62.6473 13.1197Z" fill="#F5F0EC"/>
</g>
<g id="Group_5">
<path id="Vector_5" d="M70.9984 13.9204C70.6266 13.512 70.1778 13.2332 69.6554 13.0646C69.1234 12.8961 68.4311 12.7275 67.5625 12.5622C66.8478 12.4357 66.2966 12.306 65.9024 12.1925C65.4986 12.0726 65.1589 11.8911 64.8896 11.635C64.6204 11.3756 64.4858 11.0418 64.4858 10.6268C64.4858 10.0822 64.723 9.64452 65.2069 9.30737C65.6813 8.97347 66.3895 8.80163 67.3318 8.80163C68.5721 8.80163 69.649 9.1129 70.5464 9.74829L71.1906 8.54876C70.7291 8.24403 70.1522 7.99772 69.4503 7.80646C68.7388 7.61195 68.0337 7.51465 67.3318 7.51465C65.9697 7.51465 64.9121 7.81289 64.1525 8.4029C63.3929 8.98642 63.0179 9.74824 63.0179 10.6657C63.0179 11.408 63.207 11.9916 63.5852 12.4098C63.9634 12.8345 64.4217 13.1262 64.9601 13.3045C65.505 13.4796 66.2165 13.6481 67.1043 13.8167C67.7677 13.9302 68.2965 14.0404 68.6971 14.1603C69.1042 14.2803 69.4343 14.4554 69.6939 14.6855C69.9567 14.919 70.0881 15.2399 70.0881 15.6386C70.0881 16.2157 69.8509 16.663 69.3734 16.9742C68.8959 17.2854 68.1619 17.4443 67.1651 17.4443C66.4152 17.4443 65.694 17.3341 65.0082 17.1007C64.3127 16.8673 63.7455 16.5755 63.2871 16.2059L62.6205 17.3827C63.0788 17.7749 63.7134 18.1024 64.5178 18.3585C65.3255 18.621 66.178 18.7508 67.0626 18.7508C68.4696 18.7508 69.5753 18.459 70.3701 17.9014C71.1649 17.3341 71.5624 16.569 71.5624 15.5997C71.5624 14.8897 71.3797 14.3289 70.9984 13.9204Z" fill="#F5F0EC"/>
</g>
<g id="Group_6">
<path id="Vector_6" d="M82.0071 15.3695C81.6482 16.0309 81.1674 16.5366 80.5424 16.8932C79.9175 17.2465 79.2316 17.4313 78.4656 17.4313C77.6868 17.4313 76.9913 17.2465 76.3856 16.8932C75.7702 16.5366 75.2799 16.0309 74.9306 15.3695C74.5748 14.7114 74.4017 13.9626 74.4017 13.1197C74.4017 12.2833 74.5748 11.541 74.9306 10.8894C75.2799 10.2346 75.7702 9.73203 76.3856 9.3657C76.9913 9.00262 77.6868 8.8211 78.4656 8.8211C79.2316 8.8211 79.9175 9.00262 80.5424 9.3657C81.1674 9.73203 81.6482 10.2346 82.0071 10.8894C82.3597 11.541 82.5328 12.2833 82.5328 13.1197C82.5328 13.9626 82.3597 14.7114 82.0071 15.3695ZM83.2988 10.2021C82.834 9.35276 82.177 8.69148 81.3501 8.21817C80.52 7.7546 79.5938 7.51465 78.5714 7.51465C77.658 7.51465 76.8343 7.71567 76.1068 8.10792C75.3889 8.50018 74.8056 9.06099 74.3601 9.78715V7.60543H72.9467V22.7155H74.4242V16.569C74.8729 17.2789 75.4626 17.8236 76.1709 18.1899C76.892 18.5659 77.6868 18.7508 78.5714 18.7508C79.6098 18.7508 80.5425 18.5173 81.3629 18.0473C82.1866 17.5772 82.834 16.9191 83.2988 16.0633C83.7763 15.2075 84.007 14.2317 84.007 13.1197C84.007 12.0337 83.7763 11.0579 83.2988 10.2021Z" fill="#F5F0EC"/>
</g>
<g id="Group_7">
<path id="Vector_7" d="M86.2361 12.4746C86.3387 11.3756 86.7393 10.5004 87.454 9.81636C88.1623 9.13882 89.0501 8.80163 90.0982 8.80163C91.159 8.80163 92.0531 9.13882 92.7647 9.81636C93.4762 10.5004 93.88 11.3756 93.9729 12.4746H86.2361ZM95.3896 13.1197C95.3896 12.0337 95.1588 11.0645 94.7005 10.2216C94.2486 9.37223 93.6172 8.70762 92.8128 8.23756C92.0115 7.75454 91.1013 7.51465 90.0982 7.51465C89.0886 7.51465 88.1784 7.75454 87.3643 8.23756C86.5566 8.70762 85.9189 9.37224 85.4606 10.2281C84.9958 11.0839 84.765 12.0499 84.765 13.1197C84.765 14.1993 85.0086 15.1685 85.4926 16.0244C85.9733 16.8672 86.6464 17.5416 87.5149 18.0214C88.3771 18.5109 89.3738 18.7508 90.4859 18.7508C91.3641 18.7508 92.1622 18.5984 92.8897 18.2871C93.6172 17.9824 94.2165 17.5351 94.7005 16.9418L93.8704 15.9725C93.4602 16.4556 92.9698 16.8154 92.3993 17.0617C91.8288 17.3049 91.207 17.4313 90.5372 17.4313C89.3257 17.4313 88.329 17.0715 87.547 16.368C86.7586 15.6613 86.3227 14.7374 86.2361 13.5833H95.3639L95.3896 13.1197Z" fill="#F5F0EC"/>
</g>
<g id="Group_8">
<path id="Vector_8" d="M104.778 15.804L105.877 16.5626C105.445 17.2758 104.858 17.8203 104.115 18.1866C103.365 18.5627 102.525 18.7475 101.602 18.7475C100.519 18.7475 99.5539 18.5076 98.7078 18.0343C97.8553 17.5545 97.1918 16.8899 96.7015 16.0276C96.2175 15.1653 95.974 14.196 95.974 13.1165C95.974 12.0467 96.2175 11.0774 96.7015 10.2248C97.1918 9.36899 97.8553 8.70438 98.7078 8.23107C99.5539 7.75453 100.519 7.51465 101.602 7.51465C102.541 7.51465 103.381 7.70591 104.124 8.07223C104.868 8.44179 105.445 8.98318 105.877 9.69637L104.778 10.455C104.416 9.91036 103.958 9.50512 103.403 9.22308C102.852 8.95077 102.249 8.81786 101.602 8.81786C100.81 8.81786 100.099 8.99288 99.477 9.35272C98.8424 9.71256 98.352 10.2151 97.9963 10.8699C97.6501 11.5345 97.4771 12.2769 97.4771 13.1165C97.4771 13.9723 97.6501 14.7244 97.9963 15.3793C98.352 16.0276 98.8424 16.5301 99.477 16.8899C100.099 17.2433 100.81 17.4281 101.602 17.4281C102.249 17.4281 102.852 17.2919 103.403 17.0261C103.958 16.7538 104.416 16.3551 104.778 15.804Z" fill="#F5F0EC"/>
</g>
<g id="Group_9">
<path id="Vector_9" d="M112.543 16.9382C112.338 17.123 112.091 17.2591 111.809 17.3531C111.524 17.4601 111.232 17.5055 110.925 17.5055C110.312 17.5055 109.848 17.3272 109.524 16.9868C109.2 16.6497 109.034 16.1472 109.034 15.4891V8.90182H112.354V7.64071H109.034V5.22559H107.566V15.5701C107.566 16.5913 107.841 17.3856 108.393 17.9432C108.947 18.5072 109.736 18.7861 110.758 18.7861C111.2 18.7861 111.626 18.7212 112.037 18.585C112.441 18.4489 112.787 18.2576 113.066 18.0112L112.543 16.9382Z" fill="#F5F0EC"/>
</g>
<g id="Group_10">
<path id="Vector_10" d="M26.3066 15.4809C26.1304 15.9575 25.8483 16.3238 25.4317 16.5734C25.0247 16.8198 24.5567 16.9397 24.0311 16.9397C23.4894 16.9397 23.0664 16.8296 22.7587 16.5929C22.451 16.3595 22.2908 16.0418 22.2908 15.6398C22.2908 14.8035 22.9221 14.382 24.1881 14.382H26.3066V15.4809ZM28.0598 9.15625C27.1784 8.362 25.9125 7.95996 24.2651 7.95996C23.4158 7.95996 22.5793 8.07344 21.7652 8.30037C20.9575 8.53053 20.2557 8.85146 19.6788 9.26317L20.7845 11.4417C21.1691 11.1369 21.6369 10.8938 22.185 10.709C22.7298 10.5339 23.2844 10.4432 23.8517 10.4432C24.6721 10.4432 25.2811 10.6248 25.6849 10.9911C26.1015 11.3574 26.3066 11.8826 26.3066 12.5601H23.8517C22.3004 12.5601 21.1466 12.8519 20.3999 13.4192C19.6531 13.993 19.2845 14.7872 19.2845 15.7857C19.2845 16.4081 19.4416 16.9722 19.7621 17.4584C20.0762 17.9544 20.5345 18.3435 21.1306 18.6255C21.7332 18.8978 22.4414 19.0437 23.2651 19.0437C24.8452 19.0437 25.9221 18.5412 26.499 17.5427V18.8848H29.3867V12.7416C29.3867 11.1434 28.9475 9.94724 28.0598 9.15625Z" fill="#F5F0EC"/>
</g>
<g id="Group_11">
<path id="Vector_11" d="M45.3848 12.7059H41.5164V5.33727H45.3848C46.8238 5.33727 47.9232 5.65495 48.6795 6.29683C49.4391 6.92898 49.8173 7.83666 49.8173 9.02964C49.8173 10.1967 49.4391 11.0947 48.6795 11.7431C47.9232 12.3817 46.8238 12.7059 45.3848 12.7059ZM37.8403 15.6656C37.3275 16.2037 36.68 16.4793 35.9044 16.4793C35.1128 16.4793 34.4622 16.2037 33.9494 15.6656C33.427 15.1307 33.1706 14.411 33.1706 13.5001C33.1706 12.5956 33.427 11.8727 33.9494 11.3314C34.4622 10.79 35.1128 10.5177 35.9044 10.5177C36.68 10.5177 37.3275 10.79 37.8403 11.3314C38.3531 11.8727 38.6062 12.5956 38.6062 13.5001C38.6062 14.411 38.3531 15.1307 37.8403 15.6656ZM48.0418 13.6525C49.0994 13.3023 49.9198 12.7318 50.4967 11.9408C51.0672 11.1465 51.3589 10.1837 51.3589 9.02964C51.3589 7.46385 50.8301 6.232 49.7788 5.33727C48.7244 4.44253 47.2725 3.99512 45.4232 3.99512L38.5485 4.04379V9.2598C37.7858 8.391 36.7249 7.95659 35.3692 7.95659C34.3661 7.95659 33.4559 8.18679 32.6514 8.64389C31.8373 9.09126 31.206 9.73637 30.738 10.5792C30.2765 11.4221 30.0521 12.3914 30.0521 13.5001C30.0521 14.6056 30.2765 15.5813 30.738 16.4177C31.206 17.2573 31.8373 17.9057 32.6514 18.3563C33.4559 18.8134 34.3661 19.0404 35.3692 19.0404C36.8147 19.0404 37.9236 18.5768 38.6895 17.6399V18.8814H41.635V14.0252H45.4232C45.8271 14.0252 46.2117 14.0058 46.5867 13.9637L49.9038 18.687H51.5896L48.0418 13.6525Z" fill="#F5F0EC"/>
</g>
<g id="Group_12">
<path id="Vector_12" d="M53.4939 12.4746C53.5901 11.3756 53.9907 10.5004 54.7118 9.81636C55.4201 9.13882 56.2982 8.80163 57.3495 8.80163C58.4167 8.80163 59.3013 9.13882 60.0225 9.81636C60.734 10.5004 61.1378 11.3756 61.2307 12.4746H53.4939ZM62.6473 13.1197C62.6473 12.0337 62.4166 11.0645 61.9583 10.2216C61.5 9.37223 60.875 8.70762 60.0706 8.23756C59.2693 7.75454 58.3655 7.51465 57.3495 7.51465C56.3399 7.51465 55.4329 7.75454 54.6252 8.23756C53.8176 8.70762 53.1766 9.37224 52.7183 10.2281C52.2536 11.0839 52.0228 12.0499 52.0228 13.1197C52.0228 14.1993 52.26 15.1685 52.7504 16.0244C53.2311 16.8672 53.9042 17.5416 54.7663 18.0214C55.6349 18.5109 56.6252 18.7508 57.747 18.7508C58.6155 18.7508 59.4135 18.5984 60.1411 18.2871C60.8686 17.9824 61.4775 17.5351 61.9583 16.9418L61.1314 15.9725C60.7179 16.4556 60.2212 16.8154 59.6571 17.0617C59.0898 17.3049 58.4648 17.4313 57.7854 17.4313C56.5867 17.4313 55.5899 17.0715 54.7983 16.368C54.0163 15.6613 53.5837 14.7374 53.4939 13.5833H62.6217L62.6473 13.1197Z" fill="#F5F0EC"/>
</g>
<g id="Group_13">
<path id="Vector_13" d="M70.9984 13.9172C71.3797 14.3257 71.5592 14.8832 71.5592 15.5964C71.5592 16.5625 71.1649 17.3308 70.3669 17.8981C69.5753 18.459 68.4696 18.7475 67.0626 18.7475C66.178 18.7475 65.3255 18.6178 64.5178 18.3552C63.7102 18.0991 63.0788 17.7717 62.6205 17.3794L63.2839 16.2027C63.7422 16.5723 64.3127 16.8673 65.0082 17.1007C65.694 17.3308 66.4152 17.4443 67.1651 17.4443C68.1619 17.4443 68.8959 17.2822 69.3702 16.971C69.8542 16.6597 70.0913 16.2124 70.0913 15.6354C70.0913 15.2366 69.9567 14.9157 69.6939 14.6855C69.4343 14.4521 69.101 14.277 68.7003 14.1571C68.2965 14.0371 67.7677 13.9237 67.101 13.8134C66.2165 13.6449 65.505 13.4764 64.9601 13.3013C64.4217 13.1262 63.9634 12.8312 63.5852 12.4066C63.207 11.9916 63.0147 11.408 63.0147 10.6624C63.0147 9.74499 63.3961 8.98318 64.1557 8.39965C64.9121 7.80965 65.9729 7.51465 67.3318 7.51465C68.0337 7.51465 68.7388 7.6087 69.4503 7.79997C70.1554 7.99448 70.7291 8.24079 71.1906 8.54552L70.5496 9.74505C69.649 9.1129 68.5721 8.80163 67.3318 8.80163C66.3927 8.80163 65.6813 8.96698 65.2069 9.30413C64.723 9.64128 64.4858 10.0789 64.4858 10.6236C64.4858 11.0385 64.6204 11.3756 64.8896 11.6317C65.1589 11.8878 65.4986 12.0694 65.9024 12.1893C66.2966 12.3028 66.851 12.4292 67.5625 12.5589C68.4311 12.7275 69.1266 12.8928 69.6554 13.0614C70.1778 13.23 70.6266 13.5087 70.9984 13.9172Z" fill="#F5F0EC"/>
</g>
<g id="Group_14">
<path id="Vector_14" d="M82.0071 15.3695C81.6482 16.0309 81.1674 16.5366 80.5424 16.8932C79.9175 17.2465 79.2316 17.4313 78.4656 17.4313C77.6868 17.4313 76.9913 17.2465 76.3856 16.8932C75.7702 16.5366 75.2799 16.0309 74.9306 15.3695C74.5748 14.7114 74.4017 13.9626 74.4017 13.1197C74.4017 12.2833 74.5748 11.541 74.9306 10.8894C75.2799 10.2346 75.7702 9.73203 76.3856 9.3657C76.9913 9.00262 77.6868 8.8211 78.4656 8.8211C79.2316 8.8211 79.9175 9.00262 80.5424 9.3657C81.1674 9.73203 81.6482 10.2346 82.0071 10.8894C82.3597 11.541 82.5328 12.2833 82.5328 13.1197C82.5328 13.9626 82.3597 14.7114 82.0071 15.3695ZM83.2988 10.2021C82.834 9.35276 82.177 8.69148 81.3501 8.21817C80.52 7.7546 79.5938 7.51465 78.5714 7.51465C77.658 7.51465 76.8343 7.71567 76.1068 8.10792C75.3889 8.50018 74.8056 9.06099 74.3601 9.78715V7.60543H72.9467V22.7155H74.4242V16.569C74.8729 17.2789 75.4626 17.8236 76.1709 18.1899C76.892 18.5659 77.6868 18.7508 78.5714 18.7508C79.6098 18.7508 80.5425 18.5173 81.3629 18.0473C82.1866 17.5772 82.834 16.9191 83.2988 16.0633C83.7763 15.2075 84.007 14.2317 84.007 13.1197C84.007 12.0337 83.7763 11.0579 83.2988 10.2021Z" fill="#F5F0EC"/>
</g>
<g id="Group_15">
<path id="Vector_15" d="M86.2361 12.4746C86.3387 11.3756 86.7393 10.5004 87.454 9.81636C88.1623 9.13882 89.0501 8.80163 90.0982 8.80163C91.159 8.80163 92.0531 9.13882 92.7647 9.81636C93.4762 10.5004 93.88 11.3756 93.9729 12.4746H86.2361ZM95.3896 13.1197C95.3896 12.0337 95.1588 11.0645 94.7005 10.2216C94.2486 9.37223 93.6172 8.70762 92.8128 8.23756C92.0115 7.75454 91.1013 7.51465 90.0982 7.51465C89.0886 7.51465 88.1784 7.75454 87.3643 8.23756C86.5566 8.70762 85.9189 9.37224 85.4606 10.2281C84.9958 11.0839 84.765 12.0499 84.765 13.1197C84.765 14.1993 85.0086 15.1685 85.4926 16.0244C85.9733 16.8672 86.6464 17.5416 87.5149 18.0214C88.3771 18.5109 89.3738 18.7508 90.4859 18.7508C91.3641 18.7508 92.1622 18.5984 92.8897 18.2871C93.6172 17.9824 94.2165 17.5351 94.7005 16.9418L93.8704 15.9725C93.4602 16.4556 92.9698 16.8154 92.3993 17.0617C91.8288 17.3049 91.207 17.4313 90.5372 17.4313C89.3257 17.4313 88.329 17.0715 87.547 16.368C86.7586 15.6613 86.3227 14.7374 86.2361 13.5833H95.3639L95.3896 13.1197Z" fill="#F5F0EC"/>
</g>
<g id="Group_16">
<path id="Vector_16" d="M113.069 18.008C112.793 18.2576 112.444 18.4489 112.04 18.585C111.63 18.7212 111.203 18.7861 110.761 18.7861C109.742 18.7861 108.95 18.504 108.396 17.9464C107.845 17.3856 107.566 16.5946 107.566 15.5701V5.22559H109.037V7.64071H112.357V8.90182H109.037V15.4923C109.037 16.1472 109.204 16.6497 109.527 16.9868C109.851 17.3305 110.319 17.5055 110.928 17.5055C111.236 17.5055 111.527 17.4569 111.812 17.3531C112.098 17.2591 112.341 17.123 112.546 16.9382L113.069 18.008Z" fill="#F5F0EC"/>
</g>
</g>
</g>
</svg>
