<svg width="115" height="20" viewBox="0 0 115 20" fill="none" xmlns="http://www.w3.org/2000/svg">
<g id="giarddesign">
<path d="M4.6897 19.0303C3.43637 19.0303 2.3497 18.8103 1.4297 18.3703C0.523035 17.9436 0.0697021 17.2836 0.0697021 16.3903C0.0697021 15.8569 0.289702 15.3836 0.729702 14.9703C1.18304 14.5569 1.75637 14.2169 2.4497 13.9503C3.14304 13.6703 3.9297 13.4236 4.8097 13.2103C4.98304 13.1569 5.12304 13.1236 5.2297 13.1103L5.6097 13.5103C5.02304 13.6969 4.54304 13.8903 4.1697 14.0903C3.79637 14.2903 3.5097 14.5169 3.3097 14.7703C3.1097 15.0103 3.0097 15.2769 3.0097 15.5703C3.0097 15.9836 3.19637 16.2703 3.5697 16.4303C3.95637 16.6036 4.46304 16.6903 5.0897 16.6903C5.6897 16.6903 6.26304 16.6236 6.8097 16.4903C7.3697 16.3569 7.8297 16.1636 8.1897 15.9103C8.5497 15.6569 8.7297 15.3569 8.7297 15.0103C8.7297 14.7836 8.6297 14.6036 8.4297 14.4703C8.2297 14.3369 7.9497 14.2703 7.5897 14.2703C7.2697 14.2703 6.94304 14.3036 6.6097 14.3703C6.27637 14.4236 5.86304 14.5103 5.3697 14.6303C4.94304 14.7503 4.57637 14.8369 4.2697 14.8903C3.96304 14.9569 3.67637 14.9903 3.4097 14.9903C2.86304 14.9903 2.35637 14.8969 1.8897 14.7103C1.43637 14.5103 1.0697 14.2436 0.789702 13.9103C0.523035 13.5636 0.389702 13.1703 0.389702 12.7303C0.389702 12.1169 0.696369 11.5836 1.3097 11.1303C1.93637 10.6636 2.79637 10.2569 3.8897 9.91027L4.5497 10.4903C4.37637 10.5436 4.21637 10.5969 4.0697 10.6503C3.72304 10.7703 3.46304 10.9036 3.2897 11.0503C3.11637 11.1969 3.0297 11.3969 3.0297 11.6503C3.0297 11.8636 3.11637 12.0236 3.2897 12.1303C3.47637 12.2369 3.7097 12.2903 3.9897 12.2903C4.29637 12.2903 4.61637 12.2703 4.9497 12.2303C5.28304 12.1769 5.6297 12.1103 5.9897 12.0303C6.56304 11.9236 7.06304 11.8436 7.4897 11.7903C7.91637 11.7369 8.38304 11.7103 8.8897 11.7103C9.78304 11.7103 10.523 11.9236 11.1097 12.3503C11.7097 12.7769 12.0097 13.4303 12.0097 14.3103C12.0097 15.3236 11.6297 16.1836 10.8697 16.8903C10.123 17.6103 9.18304 18.1436 8.0497 18.4903C6.91637 18.8503 5.79637 19.0303 4.6897 19.0303ZM5.5297 11.3303C4.58304 11.3303 3.74304 11.1703 3.0097 10.8503C2.2897 10.5169 1.72304 10.0569 1.3097 9.47027C0.909702 8.88361 0.709702 8.22361 0.709702 7.49027C0.709702 6.77027 0.909702 6.12361 1.3097 5.55027C1.72304 4.96361 2.29637 4.51027 3.0297 4.19027C3.76304 3.85694 4.59637 3.69027 5.5297 3.69027C6.10304 3.69027 6.56304 3.73694 6.9097 3.83027C7.2697 3.92361 7.65637 4.05027 8.0697 4.21027C8.2297 4.27694 8.37637 4.33694 8.5097 4.39027C8.65637 4.43027 8.79637 4.45027 8.9297 4.45027C9.27637 4.45027 9.52304 4.33027 9.6697 4.09027C9.81637 3.85027 9.8897 3.53694 9.8897 3.15027L12.4097 3.95027C12.3964 4.45694 12.1897 4.85027 11.7897 5.13027C11.403 5.39694 10.8897 5.53027 10.2497 5.53027C10.0897 5.51694 9.9097 5.50361 9.7097 5.49027C10.1364 6.07694 10.3497 6.74361 10.3497 7.49027C10.3497 8.22361 10.143 8.88361 9.7297 9.47027C9.3297 10.0569 8.76304 10.5169 8.0297 10.8503C7.29637 11.1703 6.46304 11.3303 5.5297 11.3303ZM5.5297 9.37027C5.86304 9.37027 6.15637 9.29027 6.4097 9.13027C6.66304 8.97027 6.85637 8.75027 6.9897 8.47027C7.12304 8.17694 7.1897 7.85027 7.1897 7.49027C7.1897 6.95694 7.03637 6.51694 6.7297 6.17027C6.43637 5.82361 6.03637 5.65027 5.5297 5.65027C5.19637 5.65027 4.90304 5.73027 4.6497 5.89027C4.39637 6.05027 4.19637 6.27027 4.0497 6.55027C3.91637 6.83027 3.8497 7.14361 3.8497 7.49027C3.8497 8.03694 4.00304 8.49027 4.3097 8.85028C4.6297 9.19694 5.03637 9.37027 5.5297 9.37027Z" fill="#F5F0EC"/>
<path d="M13.1325 3.97027H16.2925V12.2503C16.2925 13.1969 16.3392 14.0636 16.4325 14.8503H13.1325V3.97027ZM13.0925 0.0302734H16.3125V2.81027H13.0925V0.0302734Z" fill="#F5F0EC"/>
<path d="M27.7525 15.1303C26.8992 15.1303 26.2325 14.8836 25.7525 14.3903C25.2725 13.8969 25.0325 13.1769 25.0325 12.2303V7.91027C25.0325 7.27027 24.8792 6.79027 24.5725 6.47027C24.2792 6.13694 23.8258 5.97027 23.2125 5.97027C22.5725 5.97027 21.9525 6.15694 21.3525 6.53027C20.7525 6.90361 20.2325 7.45027 19.7925 8.17027L17.6325 6.49027C18.3925 5.57027 19.2725 4.87694 20.2725 4.41027C21.2859 3.93027 22.3792 3.69027 23.5525 3.69027C24.6458 3.69027 25.5325 3.86361 26.2125 4.21027C26.8925 4.54361 27.3925 5.02361 27.7125 5.65027C28.0325 6.26361 28.1925 6.99027 28.1925 7.83027V12.3303C28.1925 12.3436 28.1925 12.3569 28.1925 12.3703C28.1925 12.3703 28.1925 12.3769 28.1925 12.3903C28.2058 12.6169 28.2592 12.7836 28.3525 12.8903C28.4458 12.9969 28.5792 13.0503 28.7525 13.0503C28.8992 13.0503 29.0392 13.0436 29.1725 13.0303C29.3192 13.0036 29.4725 12.9636 29.6325 12.9103L29.2325 14.8503C29.0058 14.9436 28.7659 15.0103 28.5125 15.0503C28.2592 15.1036 28.0058 15.1303 27.7525 15.1303ZM21.2325 15.1303C20.1392 15.1303 19.2725 14.8503 18.6325 14.2903C18.0058 13.7169 17.6925 12.9836 17.6925 12.0903C17.6925 11.3036 17.9858 10.6036 18.5725 9.99027C19.1592 9.36361 20.0325 8.85694 21.1925 8.47027C22.3525 8.08361 23.7792 7.82361 25.4725 7.69027V9.69028C24.4458 9.78361 23.5992 9.91694 22.9325 10.0903C22.2792 10.2636 21.7858 10.4836 21.4525 10.7503C21.1325 11.0036 20.9725 11.3103 20.9725 11.6703C20.9725 11.9636 21.0792 12.2036 21.2925 12.3903C21.5192 12.5636 21.8258 12.6503 22.2125 12.6503C22.7325 12.6503 23.2058 12.5369 23.6325 12.3103C24.0592 12.0836 24.3992 11.7636 24.6525 11.3503C24.9058 10.9369 25.0325 10.4503 25.0325 9.89027L25.6525 10.0703C25.6525 10.9236 25.4992 11.7369 25.1925 12.5103C24.8858 13.2703 24.3992 13.8969 23.7325 14.3903C23.0792 14.8836 22.2458 15.1303 21.2325 15.1303Z" fill="#F5F0EC"/>
<path d="M30.4958 3.97027H33.6758V6.57027C34.1025 5.65027 34.6091 4.94361 35.1958 4.45027C35.7825 3.94361 36.3891 3.69027 37.0158 3.69027C37.3891 3.69027 37.7225 3.75027 38.0158 3.87027C38.3091 3.97694 38.6025 4.13027 38.8958 4.33027L37.6158 7.11027C37.3358 6.92361 37.0825 6.79027 36.8558 6.71027C36.6291 6.61694 36.3691 6.57027 36.0758 6.57027C35.6491 6.57027 35.2558 6.69694 34.8958 6.95027C34.5358 7.19027 34.2425 7.55694 34.0158 8.05027C33.7891 8.54361 33.6758 9.13694 33.6758 9.83027V12.2503C33.6758 13.1969 33.7225 14.0636 33.8158 14.8503H30.4958V3.97027Z" fill="#F5F0EC"/>
<path d="M43.671 15.1303C42.631 15.1303 41.7243 14.8969 40.951 14.4303C40.1776 13.9503 39.5776 13.2836 39.151 12.4303C38.7376 11.5636 38.531 10.5569 38.531 9.41027C38.531 8.26361 38.7376 7.26361 39.151 6.41027C39.5776 5.54361 40.1776 4.87694 40.951 4.41027C41.7243 3.93027 42.631 3.69027 43.671 3.69027C44.4043 3.69027 45.091 3.87694 45.731 4.25027C46.371 4.62361 46.8909 5.13694 47.291 5.79027V0.550274H50.0697V12.2503C50.0697 13.1969 50.123 14.0636 50.2297 14.8503H47.291V12.9503C46.9043 13.6303 46.3909 14.1636 45.7509 14.5503C45.1243 14.9369 44.431 15.1303 43.671 15.1303ZM41.871 9.41027C41.871 10.0636 41.9843 10.6436 42.211 11.1503C42.4376 11.6436 42.7509 12.0303 43.151 12.3103C43.551 12.5769 44.0243 12.7103 44.571 12.7103C45.0643 12.7103 45.5176 12.5703 45.931 12.2903C46.3443 12.0103 46.671 11.6436 46.9109 11.1903C47.1643 10.7236 47.291 10.2303 47.291 9.71027V9.11028C47.291 8.56361 47.1643 8.06361 46.9109 7.61027C46.6576 7.15694 46.3176 6.79694 45.891 6.53027C45.4776 6.25027 45.0376 6.11027 44.571 6.11027C44.0243 6.11027 43.551 6.25027 43.151 6.53027C42.7509 6.79694 42.4376 7.18361 42.211 7.69027C41.9843 8.18361 41.871 8.75694 41.871 9.41027Z" fill="#F5F0EC"/>
<path d="M57.1131 15.1303C56.0998 15.1303 55.1998 14.8903 54.4131 14.4103C53.6265 13.9303 53.0131 13.2569 52.5731 12.3903C52.1465 11.5236 51.9331 10.5303 51.9331 9.41027C51.9331 8.29027 52.1465 7.29694 52.5731 6.43027C53.0131 5.56361 53.6265 4.89027 54.4131 4.41027C55.1998 3.93027 56.0998 3.69027 57.1131 3.69027C57.9798 3.69027 58.7665 3.92361 59.4731 4.39027C60.1931 4.84361 60.7465 5.46361 61.1331 6.25027V0.550274H62.9531V12.2503C62.9531 13.2103 62.9865 14.0769 63.0531 14.8503H61.1331V12.5503C60.7598 13.3369 60.2131 13.9636 59.4931 14.4303C58.7865 14.8969 57.9931 15.1303 57.1131 15.1303ZM53.8931 9.41027C53.8931 10.2369 54.0465 10.9769 54.3531 11.6303C54.6598 12.2703 55.0865 12.7703 55.6331 13.1303C56.1798 13.4903 56.8065 13.6703 57.5131 13.6703C58.1798 13.6703 58.7865 13.4969 59.3331 13.1503C59.8931 12.8036 60.3331 12.3503 60.6531 11.7903C60.9731 11.2169 61.1331 10.5903 61.1331 9.91027V8.91027C61.1331 8.23027 60.9665 7.60361 60.6331 7.03027C60.3131 6.45694 59.8731 6.00361 59.3131 5.67027C58.7665 5.32361 58.1665 5.15027 57.5131 5.15027C56.8065 5.15027 56.1798 5.33027 55.6331 5.69027C55.0865 6.05027 54.6598 6.55694 54.3531 7.21027C54.0465 7.85027 53.8931 8.58361 53.8931 9.41027Z" fill="#F5F0EC"/>
<path d="M70.3656 15.1303C69.379 15.1303 68.4656 14.9236 67.6256 14.5103C66.7856 14.0969 66.1123 13.4836 65.6056 12.6703C65.1123 11.8569 64.8656 10.8703 64.8656 9.71027C64.8656 8.55027 65.099 7.51694 65.5656 6.61027C66.0456 5.69027 66.699 4.97694 67.5256 4.47027C68.3656 3.95027 69.319 3.69027 70.3856 3.69027C71.479 3.69027 72.4056 3.93694 73.1656 4.43027C73.9256 4.92361 74.499 5.62361 74.8856 6.53027C75.2856 7.42361 75.4856 8.47027 75.4856 9.67027H65.7656V8.25027H74.2656L73.6056 8.83027C73.6056 8.12361 73.479 7.49027 73.2256 6.93027C72.9723 6.35694 72.599 5.91027 72.1056 5.59027C71.6256 5.27027 71.0523 5.11027 70.3856 5.11027C69.6656 5.11027 69.0323 5.29694 68.4856 5.67027C67.9523 6.03027 67.5323 6.55694 67.2256 7.25027C66.919 7.93027 66.7656 8.72361 66.7656 9.63027C66.7656 10.5503 66.9323 11.3169 67.2656 11.9303C67.599 12.5436 68.039 12.9969 68.5856 13.2903C69.1323 13.5703 69.7323 13.7103 70.3856 13.7103C71.3323 13.7103 72.119 13.4636 72.7456 12.9703C73.3856 12.4769 73.8456 11.8569 74.1256 11.1103L75.6456 12.1703C75.019 13.1303 74.259 13.8636 73.3656 14.3703C72.4723 14.8769 71.4723 15.1303 70.3656 15.1303Z" fill="#F5F0EC"/>
<path d="M81.8974 15.1303C80.764 15.1303 79.704 14.8836 78.7174 14.3903C77.744 13.8836 76.964 13.1903 76.3774 12.3103L77.7374 11.1903C78.1107 12.0036 78.6707 12.6369 79.4174 13.0903C80.1774 13.5436 81.0174 13.7703 81.9374 13.7703C82.4174 13.7703 82.844 13.7036 83.2174 13.5703C83.5907 13.4236 83.884 13.2236 84.0974 12.9703C84.3107 12.7036 84.4174 12.3903 84.4174 12.0303C84.4174 11.6436 84.2774 11.3236 83.9974 11.0703C83.7174 10.8036 83.3707 10.5969 82.9574 10.4503C82.5574 10.2903 81.9974 10.1169 81.2774 9.93027C80.384 9.69028 79.6574 9.46361 79.0974 9.25027C78.5507 9.02361 78.0774 8.70361 77.6774 8.29027C77.2907 7.87694 77.0974 7.33027 77.0974 6.65027C77.0974 6.07694 77.264 5.56361 77.5974 5.11027C77.9307 4.65694 78.404 4.31027 79.0174 4.07027C79.6307 3.81694 80.324 3.69027 81.0974 3.69027C82.0707 3.69027 82.9707 3.85694 83.7974 4.19027C84.6374 4.52361 85.3774 5.11694 86.0174 5.97027L84.6574 7.09027C84.3374 6.42361 83.8507 5.91694 83.1974 5.57027C82.544 5.22361 81.8374 5.05027 81.0774 5.05027C80.424 5.05027 79.8907 5.18361 79.4774 5.45027C79.0774 5.70361 78.8774 6.04361 78.8774 6.47027C78.8774 6.81694 79.004 7.10361 79.2574 7.33027C79.524 7.55694 79.8507 7.74361 80.2374 7.89027C80.624 8.02361 81.1507 8.17694 81.8174 8.35028C82.7507 8.60361 83.504 8.84361 84.0774 9.07027C84.664 9.29694 85.164 9.63694 85.5774 10.0903C86.004 10.5303 86.2174 11.1169 86.2174 11.8503C86.2174 12.5169 86.024 13.1036 85.6374 13.6103C85.2507 14.1036 84.7307 14.4836 84.0774 14.7503C83.4374 15.0036 82.7107 15.1303 81.8974 15.1303Z" fill="#F5F0EC"/>
<path d="M87.9056 3.97027H89.7256V12.2503C89.7256 13.2103 89.759 14.0769 89.8256 14.8503H87.9056V3.97027ZM87.7856 0.390274H89.8456V2.33027H87.7856V0.390274Z" fill="#F5F0EC"/>
<path d="M95.363 19.0303C94.243 19.0303 93.283 18.8036 92.483 18.3503C91.683 17.8969 91.283 17.2303 91.283 16.3503C91.283 15.8569 91.4563 15.4169 91.803 15.0303C92.1496 14.6436 92.6163 14.3169 93.203 14.0503C93.7896 13.7703 94.4896 13.5303 95.303 13.3303C95.463 13.2903 95.603 13.2569 95.723 13.2303L95.963 13.5503C95.3496 13.7503 94.8363 13.9636 94.423 14.1903C94.0097 14.4036 93.683 14.6569 93.443 14.9503C93.203 15.2436 93.083 15.5903 93.083 15.9903C93.083 16.5503 93.3297 16.9636 93.823 17.2303C94.3297 17.4969 94.9563 17.6303 95.703 17.6303C96.503 17.6303 97.283 17.5103 98.043 17.2703C98.8163 17.0303 99.443 16.6903 99.923 16.2503C100.403 15.8236 100.643 15.3303 100.643 14.7703C100.643 14.3836 100.51 14.0836 100.243 13.8703C99.9763 13.6436 99.5897 13.5303 99.083 13.5303C98.763 13.5303 98.4163 13.5703 98.043 13.6503C97.683 13.7169 97.1896 13.8303 96.563 13.9903C96.043 14.1369 95.6096 14.2503 95.263 14.3303C94.9163 14.3969 94.6096 14.4303 94.343 14.4303C93.863 14.4303 93.4163 14.3636 93.003 14.2303C92.603 14.0836 92.2763 13.8769 92.023 13.6103C91.783 13.3303 91.663 13.0036 91.663 12.6303C91.663 12.0703 91.943 11.5769 92.503 11.1503C93.063 10.7103 93.8163 10.3636 94.763 10.1103L95.143 10.6103C94.863 10.6903 94.6297 10.7769 94.443 10.8703C94.043 11.0303 93.7496 11.2169 93.563 11.4303C93.3763 11.6303 93.283 11.8503 93.283 12.0903C93.283 12.3569 93.403 12.5436 93.643 12.6503C93.883 12.7569 94.1963 12.8103 94.583 12.8103C94.9163 12.8103 95.263 12.7769 95.623 12.7103C95.983 12.6303 96.3963 12.5303 96.863 12.4103C97.423 12.2636 97.903 12.1569 98.303 12.0903C98.7163 12.0103 99.143 11.9703 99.583 11.9703C100.49 11.9703 101.216 12.1836 101.763 12.6103C102.31 13.0369 102.583 13.6569 102.583 14.4703C102.583 15.3903 102.223 16.1969 101.503 16.8903C100.796 17.5836 99.883 18.1103 98.763 18.4703C97.6563 18.8436 96.523 19.0303 95.363 19.0303ZM96.443 11.2103C95.5897 11.2103 94.8363 11.0503 94.183 10.7303C93.5296 10.3969 93.0163 9.94361 92.643 9.37027C92.283 8.79694 92.103 8.15694 92.103 7.45027C92.103 6.74361 92.283 6.10361 92.643 5.53027C93.0163 4.95694 93.5296 4.51027 94.183 4.19027C94.8496 3.85694 95.603 3.69027 96.443 3.69027C97.0163 3.69027 97.4896 3.75027 97.863 3.87027C98.2363 3.99027 98.6297 4.15027 99.043 4.35027C99.2697 4.47027 99.463 4.56361 99.623 4.63027C99.783 4.68361 99.9497 4.71027 100.123 4.71027C100.523 4.71027 100.81 4.59027 100.983 4.35027C101.17 4.09694 101.263 3.77027 101.263 3.37027L102.783 3.89027C102.77 4.42361 102.563 4.83027 102.163 5.11027C101.763 5.39027 101.296 5.53027 100.763 5.53027C100.63 5.53027 100.45 5.51694 100.223 5.49027C100.61 6.05027 100.803 6.70361 100.803 7.45027C100.803 8.15694 100.623 8.79694 100.263 9.37027C99.903 9.94361 99.3896 10.3969 98.723 10.7303C98.0563 11.0503 97.2963 11.2103 96.443 11.2103ZM96.443 9.99027C96.963 9.99027 97.4096 9.88361 97.783 9.67027C98.1563 9.44361 98.443 9.13694 98.643 8.75027C98.843 8.35028 98.943 7.91694 98.943 7.45027C98.943 6.73027 98.7163 6.13027 98.263 5.65027C97.823 5.15694 97.2163 4.91027 96.443 4.91027C95.9363 4.91027 95.4896 5.02361 95.103 5.25027C94.7296 5.47694 94.443 5.78361 94.243 6.17027C94.0563 6.54361 93.963 6.97027 93.963 7.45027C93.963 8.18361 94.183 8.79027 94.623 9.27028C95.0763 9.75027 95.683 9.99027 96.443 9.99027Z" fill="#F5F0EC"/>
<path d="M104.078 3.97027H105.898V7.13027C106.164 6.45027 106.544 5.85027 107.038 5.33027C107.531 4.81027 108.091 4.41027 108.718 4.13027C109.344 3.83694 109.984 3.69027 110.638 3.69027C111.451 3.69027 112.131 3.85027 112.678 4.17027C113.238 4.47694 113.651 4.90361 113.918 5.45027C114.198 5.99694 114.338 6.63027 114.338 7.35027V12.2503C114.338 13.2103 114.371 14.0769 114.438 14.8503H112.518V7.63027C112.518 6.83027 112.318 6.22361 111.918 5.81027C111.531 5.39694 110.911 5.19027 110.058 5.19027C109.431 5.19027 108.791 5.38361 108.138 5.77027C107.498 6.15694 106.964 6.70361 106.538 7.41027C106.111 8.10361 105.898 8.91027 105.898 9.83027V14.8503H104.078V3.97027Z" fill="#F5F0EC"/>
</g>
</svg>
