<svg width="115" height="20" viewBox="0 0 115 20" fill="none" xmlns="http://www.w3.org/2000/svg">
<g id="giarddesign">
<path d="M4.6897 19.5C3.43637 19.5 2.3497 19.28 1.4297 18.84C0.523035 18.4133 0.0697021 17.7533 0.0697021 16.86C0.0697021 16.3267 0.289702 15.8533 0.729702 15.44C1.18304 15.0267 1.75637 14.6867 2.4497 14.42C3.14304 14.14 3.9297 13.8933 4.8097 13.68C4.98304 13.6267 5.12304 13.5933 5.2297 13.58L5.6097 13.98C5.02304 14.1667 4.54304 14.36 4.1697 14.56C3.79637 14.76 3.5097 14.9867 3.3097 15.24C3.1097 15.48 3.0097 15.7467 3.0097 16.04C3.0097 16.4533 3.19637 16.74 3.5697 16.9C3.95637 17.0733 4.46304 17.16 5.0897 17.16C5.6897 17.16 6.26304 17.0933 6.8097 16.96C7.3697 16.8267 7.8297 16.6333 8.1897 16.38C8.5497 16.1267 8.7297 15.8267 8.7297 15.48C8.7297 15.2533 8.6297 15.0733 8.4297 14.94C8.2297 14.8067 7.9497 14.74 7.5897 14.74C7.2697 14.74 6.94304 14.7733 6.6097 14.84C6.27637 14.8933 5.86304 14.98 5.3697 15.1C4.94304 15.22 4.57637 15.3067 4.2697 15.36C3.96304 15.4267 3.67637 15.46 3.4097 15.46C2.86304 15.46 2.35637 15.3667 1.8897 15.18C1.43637 14.98 1.0697 14.7133 0.789702 14.38C0.523035 14.0333 0.389702 13.64 0.389702 13.2C0.389702 12.5867 0.696369 12.0533 1.3097 11.6C1.93637 11.1333 2.79637 10.7267 3.8897 10.38L4.5497 10.96C4.37637 11.0133 4.21637 11.0667 4.0697 11.12C3.72304 11.24 3.46304 11.3733 3.2897 11.52C3.11637 11.6667 3.0297 11.8667 3.0297 12.12C3.0297 12.3333 3.11637 12.4933 3.2897 12.6C3.47637 12.7067 3.7097 12.76 3.9897 12.76C4.29637 12.76 4.61637 12.74 4.9497 12.7C5.28304 12.6467 5.6297 12.58 5.9897 12.5C6.56304 12.3933 7.06304 12.3133 7.4897 12.26C7.91637 12.2067 8.38304 12.18 8.8897 12.18C9.78304 12.18 10.523 12.3933 11.1097 12.82C11.7097 13.2467 12.0097 13.9 12.0097 14.78C12.0097 15.7933 11.6297 16.6533 10.8697 17.36C10.123 18.08 9.18304 18.6133 8.0497 18.96C6.91637 19.32 5.79637 19.5 4.6897 19.5ZM5.5297 11.8C4.58304 11.8 3.74304 11.64 3.0097 11.32C2.2897 10.9867 1.72304 10.5267 1.3097 9.94C0.909702 9.35333 0.709702 8.69333 0.709702 7.96C0.709702 7.24 0.909702 6.59333 1.3097 6.02C1.72304 5.43333 2.29637 4.98 3.0297 4.66C3.76304 4.32667 4.59637 4.16 5.5297 4.16C6.10304 4.16 6.56304 4.20667 6.9097 4.3C7.2697 4.39333 7.65637 4.52 8.0697 4.68C8.2297 4.74667 8.37637 4.80667 8.5097 4.86C8.65637 4.9 8.79637 4.92 8.9297 4.92C9.27637 4.92 9.52304 4.8 9.6697 4.56C9.81637 4.32 9.8897 4.00667 9.8897 3.62L12.4097 4.42C12.3964 4.92667 12.1897 5.32 11.7897 5.6C11.403 5.86667 10.8897 6 10.2497 6C10.0897 5.98667 9.9097 5.97333 9.7097 5.96C10.1364 6.54667 10.3497 7.21333 10.3497 7.96C10.3497 8.69333 10.143 9.35333 9.7297 9.94C9.3297 10.5267 8.76304 10.9867 8.0297 11.32C7.29637 11.64 6.46304 11.8 5.5297 11.8ZM5.5297 9.84C5.86304 9.84 6.15637 9.76 6.4097 9.6C6.66304 9.44 6.85637 9.22 6.9897 8.94C7.12304 8.64667 7.1897 8.32 7.1897 7.96C7.1897 7.42667 7.03637 6.98667 6.7297 6.64C6.43637 6.29333 6.03637 6.12 5.5297 6.12C5.19637 6.12 4.90304 6.2 4.6497 6.36C4.39637 6.52 4.19637 6.74 4.0497 7.02C3.91637 7.3 3.8497 7.61333 3.8497 7.96C3.8497 8.50667 4.00304 8.96 4.3097 9.32C4.6297 9.66667 5.03637 9.84 5.5297 9.84Z" fill="#111111"/>
<path d="M13.1325 4.44H16.2925V12.72C16.2925 13.6667 16.3392 14.5333 16.4325 15.32H13.1325V4.44ZM13.0925 0.5H16.3125V3.28H13.0925V0.5Z" fill="#111111"/>
<path d="M27.7525 15.6C26.8992 15.6 26.2325 15.3533 25.7525 14.86C25.2725 14.3667 25.0325 13.6467 25.0325 12.7V8.38C25.0325 7.74 24.8792 7.26 24.5725 6.94C24.2792 6.60667 23.8258 6.44 23.2125 6.44C22.5725 6.44 21.9525 6.62667 21.3525 7C20.7525 7.37333 20.2325 7.92 19.7925 8.64L17.6325 6.96C18.3925 6.04 19.2725 5.34667 20.2725 4.88C21.2859 4.4 22.3792 4.16 23.5525 4.16C24.6458 4.16 25.5325 4.33333 26.2125 4.68C26.8925 5.01333 27.3925 5.49333 27.7125 6.12C28.0325 6.73333 28.1925 7.46 28.1925 8.3V12.8C28.1925 12.8133 28.1925 12.8267 28.1925 12.84C28.1925 12.84 28.1925 12.8467 28.1925 12.86C28.2058 13.0867 28.2592 13.2533 28.3525 13.36C28.4458 13.4667 28.5792 13.52 28.7525 13.52C28.8992 13.52 29.0392 13.5133 29.1725 13.5C29.3192 13.4733 29.4725 13.4333 29.6325 13.38L29.2325 15.32C29.0058 15.4133 28.7659 15.48 28.5125 15.52C28.2592 15.5733 28.0058 15.6 27.7525 15.6ZM21.2325 15.6C20.1392 15.6 19.2725 15.32 18.6325 14.76C18.0058 14.1867 17.6925 13.4533 17.6925 12.56C17.6925 11.7733 17.9858 11.0733 18.5725 10.46C19.1592 9.83333 20.0325 9.32667 21.1925 8.94C22.3525 8.55333 23.7792 8.29333 25.4725 8.16V10.16C24.4458 10.2533 23.5992 10.3867 22.9325 10.56C22.2792 10.7333 21.7858 10.9533 21.4525 11.22C21.1325 11.4733 20.9725 11.78 20.9725 12.14C20.9725 12.4333 21.0792 12.6733 21.2925 12.86C21.5192 13.0333 21.8258 13.12 22.2125 13.12C22.7325 13.12 23.2058 13.0067 23.6325 12.78C24.0592 12.5533 24.3992 12.2333 24.6525 11.82C24.9058 11.4067 25.0325 10.92 25.0325 10.36L25.6525 10.54C25.6525 11.3933 25.4992 12.2067 25.1925 12.98C24.8858 13.74 24.3992 14.3667 23.7325 14.86C23.0792 15.3533 22.2458 15.6 21.2325 15.6Z" fill="#111111"/>
<path d="M30.4958 4.44H33.6758V7.04C34.1025 6.12 34.6091 5.41333 35.1958 4.92C35.7825 4.41333 36.3891 4.16 37.0158 4.16C37.3891 4.16 37.7225 4.22 38.0158 4.34C38.3091 4.44667 38.6025 4.6 38.8958 4.8L37.6158 7.58C37.3358 7.39333 37.0825 7.26 36.8558 7.18C36.6291 7.08667 36.3691 7.04 36.0758 7.04C35.6491 7.04 35.2558 7.16667 34.8958 7.42C34.5358 7.66 34.2425 8.02667 34.0158 8.52C33.7891 9.01333 33.6758 9.60667 33.6758 10.3V12.72C33.6758 13.6667 33.7225 14.5333 33.8158 15.32H30.4958V4.44Z" fill="#111111"/>
<path d="M43.671 15.6C42.631 15.6 41.7243 15.3667 40.951 14.9C40.1776 14.42 39.5776 13.7533 39.151 12.9C38.7376 12.0333 38.531 11.0267 38.531 9.88C38.531 8.73333 38.7376 7.73333 39.151 6.88C39.5776 6.01333 40.1776 5.34667 40.951 4.88C41.7243 4.4 42.631 4.16 43.671 4.16C44.4043 4.16 45.091 4.34667 45.731 4.72C46.371 5.09333 46.8909 5.60667 47.291 6.26V1.02H50.0697V12.72C50.0697 13.6667 50.123 14.5333 50.2297 15.32H47.291V13.42C46.9043 14.1 46.3909 14.6333 45.7509 15.02C45.1243 15.4067 44.431 15.6 43.671 15.6ZM41.871 9.88C41.871 10.5333 41.9843 11.1133 42.211 11.62C42.4376 12.1133 42.7509 12.5 43.151 12.78C43.551 13.0467 44.0243 13.18 44.571 13.18C45.0643 13.18 45.5176 13.04 45.931 12.76C46.3443 12.48 46.671 12.1133 46.9109 11.66C47.1643 11.1933 47.291 10.7 47.291 10.18V9.58C47.291 9.03333 47.1643 8.53333 46.9109 8.08C46.6576 7.62667 46.3176 7.26667 45.891 7C45.4776 6.72 45.0376 6.58 44.571 6.58C44.0243 6.58 43.551 6.72 43.151 7C42.7509 7.26667 42.4376 7.65333 42.211 8.16C41.9843 8.65333 41.871 9.22667 41.871 9.88Z" fill="#111111"/>
<path d="M57.1131 15.6C56.0998 15.6 55.1998 15.36 54.4131 14.88C53.6265 14.4 53.0131 13.7267 52.5731 12.86C52.1465 11.9933 51.9331 11 51.9331 9.88C51.9331 8.76 52.1465 7.76667 52.5731 6.9C53.0131 6.03333 53.6265 5.36 54.4131 4.88C55.1998 4.4 56.0998 4.16 57.1131 4.16C57.9798 4.16 58.7665 4.39333 59.4731 4.86C60.1931 5.31333 60.7465 5.93333 61.1331 6.72V1.02H62.9531V12.72C62.9531 13.68 62.9865 14.5467 63.0531 15.32H61.1331V13.02C60.7598 13.8067 60.2131 14.4333 59.4931 14.9C58.7865 15.3667 57.9931 15.6 57.1131 15.6ZM53.8931 9.88C53.8931 10.7067 54.0465 11.4467 54.3531 12.1C54.6598 12.74 55.0865 13.24 55.6331 13.6C56.1798 13.96 56.8065 14.14 57.5131 14.14C58.1798 14.14 58.7865 13.9667 59.3331 13.62C59.8931 13.2733 60.3331 12.82 60.6531 12.26C60.9731 11.6867 61.1331 11.06 61.1331 10.38V9.38C61.1331 8.7 60.9665 8.07333 60.6331 7.5C60.3131 6.92667 59.8731 6.47333 59.3131 6.14C58.7665 5.79333 58.1665 5.62 57.5131 5.62C56.8065 5.62 56.1798 5.8 55.6331 6.16C55.0865 6.52 54.6598 7.02667 54.3531 7.68C54.0465 8.32 53.8931 9.05333 53.8931 9.88Z" fill="#111111"/>
<path d="M70.3656 15.6C69.379 15.6 68.4656 15.3933 67.6256 14.98C66.7856 14.5667 66.1123 13.9533 65.6056 13.14C65.1123 12.3267 64.8656 11.34 64.8656 10.18C64.8656 9.02 65.099 7.98667 65.5656 7.08C66.0456 6.16 66.699 5.44667 67.5256 4.94C68.3656 4.42 69.319 4.16 70.3856 4.16C71.479 4.16 72.4056 4.40667 73.1656 4.9C73.9256 5.39333 74.499 6.09333 74.8856 7C75.2856 7.89333 75.4856 8.94 75.4856 10.14H65.7656V8.72H74.2656L73.6056 9.3C73.6056 8.59334 73.479 7.96 73.2256 7.4C72.9723 6.82667 72.599 6.38 72.1056 6.06C71.6256 5.74 71.0523 5.58 70.3856 5.58C69.6656 5.58 69.0323 5.76667 68.4856 6.14C67.9523 6.5 67.5323 7.02667 67.2256 7.72C66.919 8.4 66.7656 9.19333 66.7656 10.1C66.7656 11.02 66.9323 11.7867 67.2656 12.4C67.599 13.0133 68.039 13.4667 68.5856 13.76C69.1323 14.04 69.7323 14.18 70.3856 14.18C71.3323 14.18 72.119 13.9333 72.7456 13.44C73.3856 12.9467 73.8456 12.3267 74.1256 11.58L75.6456 12.64C75.019 13.6 74.259 14.3333 73.3656 14.84C72.4723 15.3467 71.4723 15.6 70.3656 15.6Z" fill="#111111"/>
<path d="M81.8974 15.6C80.764 15.6 79.704 15.3533 78.7174 14.86C77.744 14.3533 76.964 13.66 76.3774 12.78L77.7374 11.66C78.1107 12.4733 78.6707 13.1067 79.4174 13.56C80.1774 14.0133 81.0174 14.24 81.9374 14.24C82.4174 14.24 82.844 14.1733 83.2174 14.04C83.5907 13.8933 83.884 13.6933 84.0974 13.44C84.3107 13.1733 84.4174 12.86 84.4174 12.5C84.4174 12.1133 84.2774 11.7933 83.9974 11.54C83.7174 11.2733 83.3707 11.0667 82.9574 10.92C82.5574 10.76 81.9974 10.5867 81.2774 10.4C80.384 10.16 79.6574 9.93333 79.0974 9.72C78.5507 9.49333 78.0774 9.17333 77.6774 8.76C77.2907 8.34667 77.0974 7.8 77.0974 7.12C77.0974 6.54667 77.264 6.03333 77.5974 5.58C77.9307 5.12667 78.404 4.78 79.0174 4.54C79.6307 4.28667 80.324 4.16 81.0974 4.16C82.0707 4.16 82.9707 4.32667 83.7974 4.66C84.6374 4.99333 85.3774 5.58667 86.0174 6.44L84.6574 7.56C84.3374 6.89333 83.8507 6.38667 83.1974 6.04C82.544 5.69333 81.8374 5.52 81.0774 5.52C80.424 5.52 79.8907 5.65333 79.4774 5.92C79.0774 6.17333 78.8774 6.51333 78.8774 6.94C78.8774 7.28667 79.004 7.57333 79.2574 7.8C79.524 8.02667 79.8507 8.21333 80.2374 8.36C80.624 8.49333 81.1507 8.64667 81.8174 8.82C82.7507 9.07333 83.504 9.31333 84.0774 9.54C84.664 9.76667 85.164 10.1067 85.5774 10.56C86.004 11 86.2174 11.5867 86.2174 12.32C86.2174 12.9867 86.024 13.5733 85.6374 14.08C85.2507 14.5733 84.7307 14.9533 84.0774 15.22C83.4374 15.4733 82.7107 15.6 81.8974 15.6Z" fill="#111111"/>
<path d="M87.9056 4.44H89.7256V12.72C89.7256 13.68 89.759 14.5467 89.8256 15.32H87.9056V4.44ZM87.7856 0.86H89.8456V2.8H87.7856V0.86Z" fill="#111111"/>
<path d="M95.363 19.5C94.243 19.5 93.283 19.2733 92.483 18.82C91.683 18.3667 91.283 17.7 91.283 16.82C91.283 16.3267 91.4563 15.8867 91.803 15.5C92.1496 15.1133 92.6163 14.7867 93.203 14.52C93.7896 14.24 94.4896 14 95.303 13.8C95.463 13.76 95.603 13.7267 95.723 13.7L95.963 14.02C95.3496 14.22 94.8363 14.4333 94.423 14.66C94.0097 14.8733 93.683 15.1267 93.443 15.42C93.203 15.7133 93.083 16.06 93.083 16.46C93.083 17.02 93.3297 17.4333 93.823 17.7C94.3297 17.9667 94.9563 18.1 95.703 18.1C96.503 18.1 97.283 17.98 98.043 17.74C98.8163 17.5 99.443 17.16 99.923 16.72C100.403 16.2933 100.643 15.8 100.643 15.24C100.643 14.8533 100.51 14.5533 100.243 14.34C99.9763 14.1133 99.5897 14 99.083 14C98.763 14 98.4163 14.04 98.043 14.12C97.683 14.1867 97.1896 14.3 96.563 14.46C96.043 14.6067 95.6096 14.72 95.263 14.8C94.9163 14.8667 94.6096 14.9 94.343 14.9C93.863 14.9 93.4163 14.8333 93.003 14.7C92.603 14.5533 92.2763 14.3467 92.023 14.08C91.783 13.8 91.663 13.4733 91.663 13.1C91.663 12.54 91.943 12.0467 92.503 11.62C93.063 11.18 93.8163 10.8333 94.763 10.58L95.143 11.08C94.863 11.16 94.6297 11.2467 94.443 11.34C94.043 11.5 93.7496 11.6867 93.563 11.9C93.3763 12.1 93.283 12.32 93.283 12.56C93.283 12.8267 93.403 13.0133 93.643 13.12C93.883 13.2267 94.1963 13.28 94.583 13.28C94.9163 13.28 95.263 13.2467 95.623 13.18C95.983 13.1 96.3963 13 96.863 12.88C97.423 12.7333 97.903 12.6267 98.303 12.56C98.7163 12.48 99.143 12.44 99.583 12.44C100.49 12.44 101.216 12.6533 101.763 13.08C102.31 13.5067 102.583 14.1267 102.583 14.94C102.583 15.86 102.223 16.6667 101.503 17.36C100.796 18.0533 99.883 18.58 98.763 18.94C97.6563 19.3133 96.523 19.5 95.363 19.5ZM96.443 11.68C95.5897 11.68 94.8363 11.52 94.183 11.2C93.5296 10.8667 93.0163 10.4133 92.643 9.84C92.283 9.26667 92.103 8.62667 92.103 7.92C92.103 7.21334 92.283 6.57333 92.643 6C93.0163 5.42667 93.5296 4.98 94.183 4.66C94.8496 4.32667 95.603 4.16 96.443 4.16C97.0163 4.16 97.4896 4.22 97.863 4.34C98.2363 4.46 98.6297 4.62 99.043 4.82C99.2697 4.94 99.463 5.03333 99.623 5.1C99.783 5.15333 99.9497 5.18 100.123 5.18C100.523 5.18 100.81 5.06 100.983 4.82C101.17 4.56667 101.263 4.24 101.263 3.84L102.783 4.36C102.77 4.89333 102.563 5.3 102.163 5.58C101.763 5.86 101.296 6 100.763 6C100.63 6 100.45 5.98667 100.223 5.96C100.61 6.52 100.803 7.17333 100.803 7.92C100.803 8.62667 100.623 9.26667 100.263 9.84C99.903 10.4133 99.3896 10.8667 98.723 11.2C98.0563 11.52 97.2963 11.68 96.443 11.68ZM96.443 10.46C96.963 10.46 97.4096 10.3533 97.783 10.14C98.1563 9.91333 98.443 9.60667 98.643 9.22C98.843 8.82 98.943 8.38667 98.943 7.92C98.943 7.2 98.7163 6.6 98.263 6.12C97.823 5.62667 97.2163 5.38 96.443 5.38C95.9363 5.38 95.4896 5.49333 95.103 5.72C94.7296 5.94667 94.443 6.25333 94.243 6.64C94.0563 7.01333 93.963 7.44 93.963 7.92C93.963 8.65333 94.183 9.26 94.623 9.74C95.0763 10.22 95.683 10.46 96.443 10.46Z" fill="#111111"/>
<path d="M104.078 4.44H105.898V7.6C106.164 6.92 106.544 6.32 107.038 5.8C107.531 5.28 108.091 4.88 108.718 4.6C109.344 4.30667 109.984 4.16 110.638 4.16C111.451 4.16 112.131 4.32 112.678 4.64C113.238 4.94667 113.651 5.37333 113.918 5.92C114.198 6.46667 114.338 7.1 114.338 7.82V12.72C114.338 13.68 114.371 14.5467 114.438 15.32H112.518V8.1C112.518 7.3 112.318 6.69333 111.918 6.28C111.531 5.86667 110.911 5.66 110.058 5.66C109.431 5.66 108.791 5.85333 108.138 6.24C107.498 6.62667 106.964 7.17333 106.538 7.88C106.111 8.57333 105.898 9.38 105.898 10.3V15.32H104.078V4.44Z" fill="#111111"/>
</g>
</svg>
