<svg width="25" height="24" viewBox="0 0 25 24" fill="none" xmlns="http://www.w3.org/2000/svg">
<g id="Icon 01">
<path id="Icon Color" fill-rule="evenodd" clip-rule="evenodd" d="M10.0697 2.25C5.7895 2.25 2.3197 5.71979 2.3197 10C2.3197 14.2802 5.7895 17.75 10.0697 17.75C11.9397 17.75 13.655 17.0877 14.9939 15.9848L20.5394 21.5303L20.6235 21.6029C20.9171 21.8208 21.3338 21.7966 21.6 21.5303C21.8929 21.2374 21.8929 20.7626 21.6 20.4697L16.0545 14.9242C17.1574 13.5853 17.8197 11.87 17.8197 10C17.8197 5.71979 14.3499 2.25 10.0697 2.25ZM10.0697 3.75C13.5215 3.75 16.3197 6.54822 16.3197 10C16.3197 13.4518 13.5215 16.25 10.0697 16.25C6.61792 16.25 3.8197 13.4518 3.8197 10C3.8197 6.54822 6.61792 3.75 10.0697 3.75Z" fill="#111111"/>
</g>
</svg>
